<svg width="371" height="211" viewBox="0 0 371 211" fill="none" xmlns="http://www.w3.org/2000/svg">
<circle cx="186.5" cy="105.5" r="105.5" fill="#C9E265"/>
<path d="M100.435 137.425C100.565 137.653 100.629 137.93 100.628 138.255C100.626 138.744 100.445 139.166 100.086 139.523C99.7591 139.88 99.319 140.057 98.7656 140.055C98.4076 140.054 98.0824 139.971 97.79 139.808C97.5302 139.644 97.3195 139.399 97.1579 139.073C96.5439 137.866 95.996 136.367 95.5143 134.575C95.0653 132.75 94.6658 130.73 94.3159 128.515C93.9985 126.301 93.7306 123.923 93.512 121.383C93.3262 118.811 93.1732 116.158 93.053 113.423C90.6104 113.739 87.8585 114.087 84.7972 114.467C81.7684 114.846 78.3 115.289 74.3918 115.796C71.656 116.176 68.8716 116.508 66.0385 116.79C59.0445 124.349 51.6829 130.084 43.9536 133.994C36.257 137.872 28.535 139.797 20.7877 139.768C17.3372 139.756 14.3436 139.403 11.8071 138.71C9.30302 138.05 7.22239 137.31 5.56524 136.49C3.94076 135.637 2.72294 134.852 1.91178 134.133C1.06806 133.413 0.613775 133.021 0.548911 132.956C0.224589 132.629 0.0633868 132.205 0.0653027 131.684C0.0672186 131.164 0.24787 130.725 0.607258 130.368C0.966646 130.011 1.39048 129.834 1.87876 129.836C2.43214 129.838 2.88715 130.035 3.24378 130.426C3.30864 130.492 3.69801 130.835 4.41187 131.456C5.12586 132.045 6.18146 132.683 7.57868 133.372C9.00844 134.061 10.8128 134.686 12.9917 135.248C15.1707 135.809 17.7575 136.095 20.7523 136.106C24.8538 136.121 28.7784 135.582 32.5259 134.489C36.2734 133.396 39.8106 131.977 43.1373 130.231C46.4968 128.453 49.613 126.43 52.4859 124.162C55.3914 121.894 58.0203 119.593 60.3727 117.258C58.0608 117.444 55.7653 117.582 53.4864 117.672C51.2074 117.761 48.9611 117.802 46.7476 117.793C42.3856 117.777 38.2362 117.518 34.2992 117.015C30.3622 116.512 26.8984 115.686 23.9078 114.536C20.9174 113.353 18.5305 111.798 16.7472 109.871C14.9965 107.944 14.1264 105.548 14.1369 102.683C14.1417 101.381 14.4069 100.08 14.9325 98.7798C15.4907 97.4798 16.1461 96.3103 16.8986 95.2714C17.6512 94.1999 18.4356 93.3402 19.2518 92.6921C20.0681 92.0115 20.7693 91.6723 21.3552 91.6745C21.8109 91.6762 22.2335 91.8405 22.6229 92.1674C23.0124 92.4944 23.206 92.9346 23.204 93.4879C23.2029 93.7809 23.1368 94.0736 23.0055 94.3661C22.8743 94.6261 22.6782 94.8369 22.4172 94.9987C22.3519 95.0636 22.0743 95.2904 21.5846 95.6793C21.0949 96.0681 20.5721 96.6033 20.0162 97.2848C19.4604 97.9338 18.9529 98.7295 18.4937 99.6718C18.0347 100.582 17.8031 101.574 17.7992 102.648C17.7924 104.503 18.4211 106.149 19.6853 107.586C20.9823 108.991 22.8496 110.186 25.2874 111.172C27.7579 112.125 30.7826 112.852 34.3615 113.353C37.9404 113.855 42.0248 114.114 46.6146 114.131C49.2513 114.141 52.0348 114.069 54.965 113.917C57.8953 113.765 60.9886 113.533 64.245 113.219C65.8138 111.5 67.2033 109.877 68.4133 108.352C69.6234 106.826 70.6538 105.463 71.5046 104.261C72.9116 102.281 74.3842 100.17 75.9224 97.9299C77.4606 95.6895 78.9827 93.4164 80.4885 91.1108C82.027 88.8052 83.5165 86.532 84.957 84.2912C86.4302 82.018 87.8053 79.8908 89.0821 77.9099C90.359 75.8963 91.505 74.0776 92.5201 72.4537C93.5354 70.7973 94.3705 69.4332 95.0254 68.3613C95.224 67.4832 95.5199 66.6867 95.9131 65.972C96.3065 65.2248 96.9427 64.8527 97.8216 64.856C98.3098 64.8578 98.7811 65.0711 99.2352 65.4959C99.6895 65.8882 99.9155 66.3936 99.9133 67.0121C99.9116 67.4678 99.747 67.9555 99.4196 68.4752C99.0922 68.9948 98.7813 69.4331 98.487 69.7901C98.3871 70.4082 98.2195 71.726 97.9842 73.7434C97.7814 75.7609 97.5608 78.234 97.3221 81.1628C97.1162 84.0592 96.9253 87.2649 96.7496 90.7799C96.6066 94.2625 96.5285 97.7942 96.5153 101.375C96.5104 102.709 96.5056 104.028 96.5008 105.33C96.496 106.632 96.5237 107.95 96.5839 109.285C101.469 108.685 105.035 108.275 107.282 108.055C109.529 107.803 110.718 107.677 110.848 107.678C111.271 107.679 111.677 107.86 112.066 108.219C112.488 108.546 112.698 108.987 112.696 109.54C112.695 109.996 112.53 110.402 112.204 110.759C111.909 111.083 111.518 111.277 111.03 111.34C110.443 111.403 109.76 111.482 108.978 111.577C108.196 111.672 107.236 111.782 106.096 111.908C104.956 112.034 103.621 112.192 102.09 112.382C100.56 112.539 98.7685 112.744 96.7167 112.997C96.8046 115.666 96.9416 118.239 97.1278 120.713C97.3467 123.155 97.5987 125.435 97.8839 127.552C98.2016 129.669 98.569 131.575 98.9859 133.269C99.4029 134.963 99.8861 136.348 100.435 137.425ZM73.917 112.132C77.7601 111.625 81.2448 111.182 84.3712 110.803C87.5303 110.391 90.38 110.027 92.9202 109.711C92.8928 108.311 92.8654 106.912 92.838 105.512C92.8431 104.112 92.8483 102.696 92.8536 101.264C92.8705 96.6739 92.968 92.296 93.1461 88.13C93.3243 83.9314 93.5656 80.2864 93.8699 77.195C92.5603 79.241 91.1033 81.5143 89.4991 84.0149C87.9275 86.4831 86.2906 89.0162 84.5883 91.6141C82.8861 94.1795 81.1677 96.7285 79.4332 99.2612C77.6986 101.794 76.046 104.164 74.4753 106.372C73.69 107.476 72.8885 108.547 72.0709 109.586C71.2533 110.624 70.4357 111.647 69.6182 112.653C70.3346 112.59 71.0348 112.512 71.7187 112.417C72.4352 112.322 73.168 112.227 73.917 112.132ZM162.349 124.371C161.988 125.118 161.529 126.012 160.972 127.052C160.448 128.059 159.841 129.115 159.154 130.219C158.466 131.323 157.697 132.427 156.847 133.531C155.996 134.602 155.065 135.575 154.053 136.45C153.073 137.293 152.013 137.972 150.871 138.489C149.763 139.038 148.573 139.311 147.304 139.306C145.351 139.299 143.677 138.691 142.281 137.481C140.886 136.271 139.704 134.688 138.734 132.732C137.765 130.775 136.976 128.558 136.366 126.082C135.789 123.574 135.343 121.033 135.027 118.46C134.711 115.855 134.492 113.331 134.371 110.889C134.283 108.447 134.242 106.283 134.249 104.395C134.259 101.66 134.35 98.8285 134.524 95.8994C134.73 92.9705 135.034 90.107 135.435 87.3089C135.835 84.5109 136.333 81.8597 136.929 79.3554C137.556 76.8512 138.281 74.6566 139.101 72.7716C139.955 70.8867 140.92 69.3928 141.999 68.29C143.077 67.1872 144.3 66.6383 145.667 66.6433C146.741 66.6473 147.7 66.9112 148.545 67.4352C149.422 67.9267 150.151 68.7432 150.733 69.8846C151.315 71.0261 151.765 72.5089 152.084 74.333C152.403 76.1571 152.557 78.3875 152.548 81.0242C152.536 84.2794 152.181 87.6472 151.485 91.1278C150.789 94.5758 149.848 98.0554 148.663 101.567C147.479 105.078 146.082 108.588 144.474 112.098C142.866 115.575 141.145 118.971 139.31 122.284C140.108 126.421 141.187 129.681 142.545 132.062C143.904 134.411 145.543 135.589 147.464 135.596C148.766 135.601 150.021 135.101 151.229 134.096C152.438 133.059 153.549 131.842 154.563 130.446C155.577 129.05 156.461 127.637 157.215 126.208C158.002 124.746 158.609 123.576 159.035 122.699C159.199 122.374 159.428 122.131 159.721 121.969C160.015 121.775 160.341 121.678 160.699 121.679C161.252 121.681 161.691 121.878 162.015 122.27C162.372 122.662 162.549 123.102 162.547 123.591C162.547 123.786 162.481 124.046 162.349 124.371ZM137.959 104.652C137.951 106.736 137.992 108.738 138.083 110.659C138.174 112.58 138.297 114.419 138.453 116.178C139.83 113.546 141.143 110.751 142.39 107.794C143.638 104.803 144.74 101.796 145.695 98.7725C146.65 95.7161 147.41 92.6916 147.975 89.6988C148.572 86.6737 148.875 83.7939 148.885 81.0596C148.899 77.2184 148.6 74.4667 147.988 72.8042C147.376 71.1418 146.549 70.3087 145.507 70.3049C144.823 70.3024 144.154 70.7719 143.5 71.7135C142.878 72.6552 142.287 73.9389 141.728 75.5644C141.168 77.19 140.657 79.1087 140.193 81.3205C139.729 83.5324 139.33 85.9072 138.995 88.4451C138.693 90.9831 138.439 93.6351 138.233 96.4013C138.06 99.1676 137.969 101.918 137.959 104.652ZM196.822 124.4C196.691 124.66 196.412 125.213 195.986 126.057C195.592 126.87 195.068 127.812 194.413 128.884C193.79 129.956 193.054 131.076 192.203 132.245C191.353 133.413 190.405 134.484 189.359 135.457C188.314 136.43 187.188 137.239 185.981 137.886C184.775 138.5 183.504 138.804 182.169 138.8C180.281 138.793 178.688 138.185 177.391 136.975C176.126 135.766 175.204 134.249 174.624 132.424C173.511 134.276 172.187 135.752 170.653 136.853C169.119 137.921 167.587 138.453 166.057 138.447C164.853 138.443 163.763 138.227 162.788 137.801C161.813 137.341 160.985 136.72 160.305 135.936C159.624 135.12 159.09 134.174 158.704 133.098C158.35 132.022 158.175 130.85 158.18 129.58C158.189 127.041 158.62 124.813 159.474 122.896C160.36 120.946 161.473 119.322 162.812 118.025C164.151 116.728 165.62 115.757 167.217 115.112C168.847 114.467 170.411 114.147 171.908 114.152C172.917 114.156 173.845 114.306 174.69 114.602C175.535 114.865 176.25 115.161 176.835 115.489C177.452 115.817 177.923 116.128 178.248 116.422C178.572 116.683 178.751 116.83 178.783 116.863C179.14 117.288 179.317 117.728 179.315 118.183C179.314 118.672 179.133 119.111 178.773 119.5C178.414 119.857 177.99 120.034 177.502 120.032C176.981 120.03 176.542 119.85 176.186 119.49C176.121 119.425 175.975 119.311 175.747 119.147C175.52 118.951 175.212 118.754 174.822 118.558C174.432 118.361 173.961 118.196 173.408 118.064C172.887 117.899 172.285 117.816 171.602 117.813C170.593 117.81 169.518 118.033 168.377 118.485C167.236 118.937 166.191 119.649 165.244 120.622C164.296 121.562 163.494 122.764 162.838 124.226C162.214 125.656 161.899 127.364 161.891 129.35C161.889 129.968 161.952 130.603 162.08 131.255C162.208 131.874 162.433 132.444 162.757 132.966C163.081 133.488 163.519 133.913 164.071 134.241C164.623 134.568 165.306 134.734 166.12 134.737C166.706 134.739 167.374 134.546 168.124 134.158C168.906 133.77 169.641 133.171 170.328 132.359C171.047 131.548 171.685 130.525 172.243 129.29C172.834 128.056 173.246 126.592 173.48 124.9C173.547 124.445 173.76 124.071 174.119 123.78C174.478 123.455 174.902 123.294 175.39 123.296C175.846 123.298 176.236 123.478 176.56 123.837C176.917 124.197 177.111 124.604 177.142 125.06C177.172 125.679 177.234 126.558 177.327 127.698C177.421 128.805 177.628 129.912 177.95 131.02C178.304 132.128 178.821 133.091 179.502 133.907C180.182 134.723 181.125 135.134 182.329 135.138C183.11 135.141 183.876 134.932 184.626 134.512C185.409 134.091 186.16 133.541 186.879 132.86C187.63 132.146 188.333 131.351 188.987 130.475C189.674 129.566 190.296 128.657 190.853 127.747C191.409 126.838 191.901 125.961 192.327 125.116C192.753 124.271 193.114 123.54 193.409 122.923C193.573 122.565 193.802 122.29 194.096 122.095C194.422 121.901 194.764 121.805 195.122 121.806C195.676 121.808 196.115 122.021 196.439 122.446C196.795 122.838 196.973 123.261 196.971 123.717C196.97 123.945 196.92 124.173 196.822 124.4ZM247.358 124.684C247.162 125.041 246.818 125.691 246.326 126.633C245.867 127.575 245.228 128.647 244.41 129.849C243.624 131.018 242.676 132.235 241.564 133.5C240.453 134.766 239.179 135.933 237.743 137.002C236.307 138.038 234.692 138.895 232.899 139.572C231.139 140.249 229.217 140.584 227.134 140.576C225.278 140.569 223.636 140.222 222.206 139.533C220.776 138.876 219.559 137.944 218.554 136.736C217.55 135.495 216.79 134.044 216.275 132.382C215.76 130.72 215.507 128.88 215.514 126.862C215.521 124.908 215.805 123.087 216.364 121.396C216.924 119.673 217.678 118.178 218.627 116.912C219.608 115.646 220.735 114.657 222.007 113.946C223.279 113.202 224.632 112.833 226.064 112.838C227.138 112.842 228.114 113.041 228.991 113.435C229.869 113.796 230.6 114.287 231.183 114.907C231.799 115.528 232.269 116.214 232.592 116.963C232.947 117.713 233.123 118.463 233.121 119.211C233.118 119.928 233.018 120.595 232.82 121.212C232.655 121.83 232.425 122.383 232.131 122.87C231.868 123.325 231.558 123.698 231.199 123.99C230.84 124.249 230.481 124.378 230.123 124.376C229.57 124.374 229.115 124.194 228.758 123.834C228.434 123.475 228.272 123.035 228.274 122.514C228.275 122.254 228.325 122.026 228.423 121.831C228.554 121.636 228.685 121.441 228.816 121.246C228.98 121.019 229.111 120.759 229.21 120.467C229.341 120.142 229.408 119.735 229.409 119.247C229.412 118.563 229.089 117.943 228.44 117.388C227.823 116.832 227.027 116.552 226.05 116.549C225.139 116.545 224.259 116.819 223.41 117.369C222.595 117.919 221.876 118.666 221.254 119.607C220.632 120.516 220.123 121.605 219.728 122.873C219.365 124.109 219.182 125.427 219.176 126.826C219.172 128.161 219.33 129.431 219.651 130.637C219.972 131.842 220.456 132.918 221.104 133.865C221.751 134.778 222.562 135.514 223.537 136.071C224.544 136.628 225.731 136.909 227.098 136.914C228.856 136.921 230.485 136.617 231.985 136.004C233.484 135.359 234.855 134.55 236.095 133.578C237.336 132.606 238.43 131.552 239.378 130.416C240.327 129.248 241.128 128.16 241.783 127.154C242.47 126.114 242.994 125.221 243.355 124.474C243.749 123.694 243.978 123.207 244.044 123.011C244.176 122.686 244.388 122.443 244.682 122.281C245.008 122.087 245.35 121.991 245.708 121.992C246.261 121.994 246.7 122.191 247.024 122.583C247.381 122.975 247.558 123.415 247.557 123.903C247.556 124.099 247.49 124.359 247.358 124.684ZM281.782 124.713C281.651 124.973 281.372 125.525 280.946 126.37C280.553 127.182 280.028 128.124 279.373 129.196C278.751 130.268 278.014 131.388 277.164 132.557C276.313 133.726 275.365 134.797 274.32 135.769C273.274 136.742 272.148 137.552 270.942 138.198C269.735 138.812 268.464 139.117 267.13 139.112C265.242 139.105 263.649 138.497 262.351 137.288C261.086 136.079 260.164 134.562 259.585 132.737C258.471 134.588 257.147 136.064 255.613 137.165C254.079 138.234 252.547 138.765 251.018 138.76C249.813 138.755 248.723 138.54 247.748 138.113C246.774 137.654 245.946 137.032 245.265 136.248C244.584 135.432 244.051 134.486 243.664 133.411C243.31 132.335 243.135 131.162 243.14 129.893C243.149 127.354 243.581 125.126 244.434 123.208C245.32 121.258 246.433 119.635 247.772 118.338C249.112 117.04 250.58 116.069 252.178 115.424C253.808 114.779 255.371 114.459 256.869 114.465C257.878 114.469 258.805 114.618 259.65 114.915C260.496 115.178 261.211 115.474 261.795 115.801C262.413 116.129 262.884 116.44 263.208 116.734C263.533 116.996 263.711 117.143 263.744 117.176C264.1 117.6 264.277 118.04 264.276 118.496C264.274 118.984 264.093 119.423 263.734 119.812C263.374 120.169 262.951 120.347 262.462 120.345C261.941 120.343 261.503 120.162 261.146 119.803C261.081 119.738 260.935 119.623 260.708 119.459C260.481 119.263 260.172 119.067 259.782 118.87C259.392 118.673 258.921 118.509 258.368 118.377C257.848 118.212 257.246 118.128 256.562 118.126C255.553 118.122 254.478 118.346 253.337 118.798C252.196 119.249 251.152 119.961 250.204 120.934C249.257 121.875 248.455 123.076 247.798 124.539C247.175 125.969 246.859 127.677 246.852 129.662C246.849 130.281 246.912 130.916 247.04 131.567C247.168 132.186 247.394 132.757 247.717 133.279C248.041 133.801 248.479 134.226 249.031 134.553C249.583 134.881 250.266 135.046 251.08 135.049C251.666 135.051 252.334 134.858 253.084 134.471C253.867 134.083 254.601 133.483 255.288 132.672C256.007 131.861 256.646 130.838 257.204 129.603C257.794 128.368 258.206 126.905 258.44 125.213C258.507 124.757 258.72 124.384 259.079 124.092C259.439 123.768 259.862 123.607 260.351 123.609C260.806 123.61 261.196 123.791 261.521 124.15C261.877 124.509 262.071 124.917 262.102 125.373C262.132 125.991 262.194 126.871 262.288 128.01C262.381 129.117 262.589 130.225 262.91 131.333C263.264 132.441 263.781 133.403 264.462 134.219C265.143 135.036 266.085 135.446 267.29 135.451C268.071 135.453 268.837 135.245 269.587 134.824C270.37 134.404 271.12 133.853 271.839 133.172C272.59 132.459 273.293 131.664 273.947 130.788C274.634 129.879 275.256 128.969 275.813 128.06C276.37 127.151 276.861 126.273 277.287 125.429C277.714 124.584 278.075 123.853 278.37 123.235C278.534 122.878 278.763 122.602 279.056 122.408C279.383 122.214 279.725 122.117 280.083 122.119C280.636 122.121 281.075 122.334 281.399 122.758C281.756 123.15 281.933 123.574 281.931 124.03C281.93 124.258 281.881 124.485 281.782 124.713ZM283.564 118.274C283.43 119.152 283.265 119.982 283.066 120.762C282.868 121.51 282.671 122.177 282.473 122.762C282.308 123.315 282.16 123.77 282.029 124.128C281.897 124.485 281.815 124.68 281.782 124.713C281.454 125.46 280.883 125.833 280.069 125.83C279.613 125.828 279.191 125.664 278.801 125.337C278.412 124.977 278.218 124.537 278.22 124.016C278.221 123.821 278.254 123.674 278.32 123.577C278.385 123.48 278.484 123.285 278.615 122.992C278.746 122.7 278.911 122.212 279.108 121.529C279.306 120.846 279.554 119.789 279.853 118.358C279.299 118.356 278.73 118.338 278.144 118.303C277.558 118.268 277.021 118.152 276.534 117.955C276.014 117.758 275.592 117.447 275.268 117.023C274.944 116.598 274.783 116.012 274.786 115.263C274.788 114.71 274.953 113.962 275.282 113.019C275.579 112.076 275.989 111.15 276.513 110.24C277.037 109.331 277.626 108.552 278.28 107.903C278.933 107.222 279.586 106.882 280.237 106.885C280.985 106.887 281.586 107.166 282.04 107.721C282.526 108.277 282.898 108.962 283.156 109.776C283.413 110.559 283.589 111.389 283.684 112.269C283.811 113.148 283.873 113.913 283.87 114.564C284.424 114.566 284.961 114.568 285.482 114.57C286.035 114.54 286.556 114.525 287.044 114.527C288.9 114.534 290.314 114.946 291.288 115.763C292.262 116.581 292.745 117.917 292.738 119.773C292.735 120.521 292.684 121.302 292.583 122.116C292.482 122.929 292.365 123.775 292.232 124.654C292.099 125.499 291.981 126.345 291.881 127.191C291.78 128.037 291.728 128.867 291.725 129.681C291.721 130.853 291.88 131.83 292.203 132.612C292.525 133.362 292.93 133.966 293.417 134.424C293.903 134.881 294.423 135.209 294.975 135.406C295.528 135.571 296.033 135.654 296.488 135.656C297.888 135.661 299.208 135.21 300.448 134.303C301.689 133.396 302.832 132.31 303.878 131.044C304.925 129.746 305.858 128.382 306.677 126.953C307.528 125.524 308.233 124.273 308.79 123.201C308.954 122.908 309.183 122.681 309.476 122.52C309.77 122.358 310.079 122.278 310.405 122.279C310.991 122.281 311.446 122.478 311.77 122.87C312.094 123.229 312.255 123.637 312.254 124.092C312.252 124.418 312.186 124.711 312.055 124.971C311.301 126.302 310.417 127.813 309.402 129.502C308.419 131.158 307.29 132.717 306.015 134.177C304.74 135.637 303.304 136.869 301.705 137.872C300.139 138.875 298.411 139.374 296.523 139.367C295.352 139.362 294.246 139.13 293.206 138.671C292.166 138.244 291.256 137.622 290.478 136.805C289.733 135.956 289.134 134.929 288.683 133.723C288.232 132.484 288.009 131.1 288.014 129.57C288.02 127.942 288.189 126.331 288.521 124.738C288.852 123.111 289.021 121.566 289.026 120.101C289.028 119.482 288.883 119.026 288.591 118.732C288.332 118.405 287.731 118.24 286.787 118.237C286.331 118.235 285.826 118.233 285.273 118.231C284.752 118.23 284.182 118.244 283.564 118.274ZM280.306 114.649C280.306 114.421 280.291 114.128 280.26 113.77C280.261 113.379 280.23 113.005 280.167 112.646C280.135 112.288 280.071 111.979 279.975 111.718C279.91 111.457 279.83 111.327 279.732 111.326C279.634 111.326 279.504 111.456 279.34 111.715C279.209 111.943 279.061 112.235 278.897 112.593C278.733 112.918 278.585 113.275 278.454 113.665C278.322 114.055 278.223 114.381 278.157 114.641L280.306 114.649ZM348.464 89.7039C348.462 90.2248 348.282 90.6473 347.923 90.9715C347.563 91.2631 347.123 91.408 346.603 91.4061L321.847 91.315L321.845 91.8521C321.838 93.8378 321.683 95.9531 321.382 98.1981C321.081 100.443 320.666 102.688 320.137 104.932C319.64 107.144 319.063 109.306 318.404 111.42C317.777 113.533 317.119 115.484 316.429 117.272C315.771 119.06 315.115 120.62 314.459 121.952C313.803 123.252 313.213 124.226 312.69 124.875C313.108 126.374 313.607 127.776 314.188 129.08C314.77 130.352 315.417 131.477 316.129 132.456C316.874 133.403 317.669 134.155 318.513 134.711C319.358 135.268 320.268 135.548 321.245 135.551C322.384 135.556 323.509 135.088 324.619 134.148C325.762 133.175 326.808 132.04 327.757 130.741C328.738 129.41 329.589 128.079 330.31 126.747C331.064 125.382 331.605 124.294 331.934 123.481C332.262 122.701 332.833 122.313 333.647 122.316C334.2 122.318 334.639 122.515 334.963 122.906C335.32 123.298 335.497 123.722 335.496 124.178C335.495 124.406 335.445 124.633 335.347 124.861C335.248 125.088 335.002 125.608 334.608 126.421C334.247 127.233 333.756 128.175 333.133 129.247C332.543 130.319 331.839 131.456 331.021 132.658C330.235 133.827 329.336 134.898 328.324 135.87C327.343 136.843 326.283 137.653 325.141 138.3C323.999 138.947 322.794 139.268 321.524 139.263C319.278 139.255 317.262 138.515 315.477 137.044C313.692 135.572 312.17 133.516 310.91 130.875C309.683 128.233 308.75 125.105 308.113 121.489C307.475 117.874 307.164 113.917 307.18 109.621C307.184 108.546 307.205 107.293 307.242 105.861C307.28 104.396 307.351 102.867 307.455 101.272C307.558 99.6447 307.711 97.9851 307.912 96.2931C308.114 94.5686 308.381 92.8931 308.712 91.2667L291.183 91.2022C290.662 91.2003 290.223 91.0522 289.866 90.7579C289.509 90.4311 289.332 90.0072 289.334 89.4864C289.336 88.9656 289.516 88.5593 289.875 88.2677C290.235 87.9435 290.675 87.7823 291.196 87.7843L309.555 87.8518C309.885 86.6811 310.263 85.6083 310.69 84.6333C311.149 83.6584 311.657 82.8139 312.213 82.0998C312.801 81.3858 313.438 80.8348 314.123 80.4467C314.841 80.0261 315.623 79.8174 316.469 79.8205C317.283 79.8235 317.982 80.0377 318.566 80.463C319.183 80.8559 319.702 81.4112 320.123 82.1289C320.543 82.8466 320.866 83.6942 321.09 84.6716C321.347 85.6491 321.538 86.724 321.664 87.8963L346.615 87.9881C347.136 87.99 347.575 88.1544 347.932 88.4813C348.289 88.7755 348.466 89.1831 348.464 89.7039ZM311.585 119.988C312.57 117.844 313.457 115.536 314.247 113.065C315.07 110.561 315.763 108.041 316.326 105.504C316.921 102.967 317.37 100.478 317.672 98.038C318.006 95.5978 318.177 93.3523 318.185 91.3015L312.423 91.2803C311.96 93.2969 311.576 95.802 311.272 98.7957C311.001 101.757 310.858 105.37 310.842 109.634C310.833 112.01 310.891 114.012 311.015 115.641C311.139 117.236 311.329 118.685 311.585 119.988ZM316.26 83.4819C315.967 83.4808 315.543 83.8048 314.987 84.4538C314.432 85.0702 313.874 86.2075 313.315 87.8656L318.002 87.8829C317.844 86.5151 317.604 85.44 317.281 84.6575C316.991 83.8752 316.651 83.4833 316.26 83.4819ZM312.353 123.507L312.353 123.556L312.353 123.507ZM369.868 125.037C369.736 125.297 369.458 125.849 369.031 126.694C368.638 127.506 368.114 128.448 367.459 129.52C366.836 130.592 366.1 131.712 365.249 132.881C364.398 134.05 363.45 135.121 362.405 136.093C361.36 137.066 360.234 137.876 359.027 138.522C357.82 139.136 356.55 139.441 355.215 139.436C353.327 139.429 351.734 138.821 350.437 137.612C349.171 136.403 348.249 134.886 347.67 133.061C346.556 134.912 345.233 136.388 343.699 137.489C342.165 138.558 340.633 139.09 339.103 139.084C337.898 139.079 336.809 138.864 335.834 138.437C334.859 137.978 334.031 137.356 333.35 136.572C332.67 135.756 332.136 134.81 331.749 133.735C331.395 132.659 331.221 131.486 331.225 130.217C331.235 127.678 331.666 125.45 332.519 123.532C333.406 121.582 334.518 119.959 335.858 118.662C337.197 117.364 338.666 116.393 340.263 115.748C341.893 115.103 343.457 114.783 344.954 114.789C345.963 114.793 346.89 114.942 347.736 115.239C348.581 115.502 349.296 115.798 349.881 116.125C350.498 116.453 350.969 116.764 351.293 117.058C351.618 117.32 351.796 117.467 351.829 117.5C352.185 117.924 352.363 118.364 352.361 118.82C352.359 119.308 352.179 119.747 351.819 120.136C351.46 120.493 351.036 120.671 350.548 120.669C350.027 120.667 349.588 120.486 349.231 120.127C349.166 120.062 349.02 119.947 348.793 119.783C348.566 119.587 348.257 119.391 347.868 119.194C347.478 118.997 347.006 118.833 346.453 118.701C345.933 118.536 345.331 118.452 344.648 118.45C343.638 118.446 342.563 118.67 341.422 119.122C340.281 119.573 339.237 120.285 338.29 121.259C337.342 122.199 336.54 123.401 335.884 124.863C335.26 126.293 334.944 128.001 334.937 129.986C334.935 130.605 334.998 131.24 335.125 131.891C335.253 132.51 335.479 133.081 335.803 133.603C336.126 134.125 336.564 134.55 337.116 134.877C337.669 135.205 338.352 135.37 339.165 135.373C339.751 135.375 340.419 135.182 341.169 134.795C341.952 134.407 342.687 133.807 343.373 132.996C344.092 132.185 344.731 131.162 345.289 129.927C345.879 128.692 346.292 127.229 346.526 125.537C346.593 125.081 346.806 124.708 347.165 124.416C347.524 124.092 347.948 123.931 348.436 123.933C348.892 123.934 349.282 124.115 349.606 124.474C349.963 124.833 350.156 125.241 350.187 125.697C350.218 126.315 350.28 127.195 350.373 128.334C350.467 129.441 350.674 130.549 350.996 131.657C351.35 132.765 351.867 133.727 352.547 134.543C353.228 135.36 354.171 135.77 355.375 135.775C356.156 135.777 356.922 135.569 357.672 135.148C358.455 134.728 359.206 134.177 359.924 133.496C360.676 132.783 361.378 131.988 362.033 131.112C362.72 130.203 363.342 129.293 363.898 128.384C364.455 127.475 364.947 126.597 365.373 125.753C365.799 124.908 366.16 124.177 366.455 123.559C366.619 123.202 366.848 122.926 367.142 122.732C367.468 122.538 367.81 122.441 368.168 122.443C368.722 122.445 369.16 122.658 369.484 123.082C369.841 123.474 370.018 123.898 370.017 124.354C370.016 124.582 369.966 124.809 369.868 125.037Z" fill="#016B2E"/>
</svg>
